<svg xmlns="http://www.w3.org/2000/svg" width="500" height="500" viewBox="0 0 500 500" version="1.1"><path d="M 403.607 132.582 C 403.273 133.452, 403.001 136.489, 403.002 139.332 L 403.005 144.500 408.628 147.438 C 415.319 150.935, 421.101 157.777, 423.521 165.063 C 424.835 169.020, 425.054 171.778, 424.497 177.334 C 424.101 181.275, 423.743 187.650, 423.702 191.500 C 423.621 199.112, 425.715 213, 426.944 213 C 427.731 213, 450 157.083, 450 155.107 C 450 153.715, 451.528 153.395, 436.719 157.890 C 426.211 161.079, 424.028 161.478, 424.440 160.134 C 427.557 149.977, 432 133.764, 432 132.547 C 432 130.200, 404.508 130.234, 403.607 132.582 M 101.081 201.071 C 97.187 211.010, 94 219.609, 94 220.179 C 94 220.874, 97.331 220.977, 104.105 220.492 L 114.210 219.769 113.628 222.635 C 113.309 224.211, 112.109 231.575, 110.962 239 C 109.815 246.425, 108.632 253.341, 108.333 254.368 C 107.133 258.498, 110.984 254.520, 130.023 231.964 C 152.731 205.060, 152.357 207.260, 134.250 207.100 C 128.063 207.045, 123 206.728, 123 206.396 C 123 206.064, 126.194 201.261, 130.098 195.723 C 134.001 190.185, 137.425 185.057, 137.705 184.327 C 138.114 183.261, 135.264 183, 123.188 183 L 108.163 183 101.081 201.071 M 334.585 205.862 C 333.565 207.512, 316 252.370, 316 253.325 C 316 253.921, 319.793 254.025, 326 253.597 C 333.879 253.055, 335.997 253.183, 335.987 254.204 C 335.980 254.917, 334.700 263.038, 333.143 272.250 C 331.587 281.462, 330.648 289, 331.058 289 C 331.467 289, 338.942 280.563, 347.669 270.250 C 369.218 244.785, 371.385 242.051, 370.624 241.291 C 370.262 240.929, 364.352 240.378, 357.490 240.066 L 345.014 239.500 356.007 223.342 C 362.053 214.456, 367 206.693, 367 206.092 C 367 204.763, 335.403 204.539, 334.585 205.862" stroke="none" fill="#f5ea23" fill-rule="evenodd"/><path d="M 241.234 97.797 C 236.688 105.884, 224.651 127.116, 214.484 144.980 C 204.318 162.844, 196 177.694, 196 177.980 C 196 178.266, 198.387 182.775, 201.305 188 C 207.274 198.687, 232.418 243.151, 234.670 247 C 236.068 249.390, 235.639 250.425, 224.929 270.500 C 218.767 282.050, 205.013 306.851, 194.363 325.613 C 183.713 344.374, 175 360.012, 175 360.363 C 175 360.713, 208.750 361, 250 361 C 291.250 361, 325 360.703, 325 360.340 C 325 359.770, 308.594 330.727, 272.379 267.185 L 263.081 250.869 273.409 232.685 C 279.089 222.683, 285.654 210.900, 287.998 206.500 C 290.341 202.100, 294.929 193.910, 298.192 188.301 C 303.483 179.204, 303.994 177.853, 302.913 175.801 C 302.247 174.535, 293.383 158.875, 283.217 141 C 273.050 123.125, 261.530 102.783, 257.616 95.796 C 253.702 88.809, 250.275 83.093, 250 83.093 C 249.725 83.094, 245.780 89.711, 241.234 97.797 M 244.876 130.257 C 242.333 134.790, 235.254 147.326, 229.146 158.112 L 218.040 177.725 230.832 200.112 C 237.868 212.426, 244.906 224.863, 246.471 227.750 C 248.037 230.637, 249.625 233, 250 233 C 250.375 233, 251.963 230.637, 253.529 227.750 C 255.094 224.863, 262.132 212.426, 269.168 200.112 L 281.960 177.725 270.854 158.112 C 264.746 147.326, 257.667 134.790, 255.124 130.257 C 252.581 125.723, 250.275 122.013, 250 122.013 C 249.725 122.013, 247.419 125.723, 244.876 130.257 M 403.667 130.667 C 403.300 131.033, 403.007 131.821, 403.015 132.417 C 403.024 133.023, 403.395 132.925, 403.858 132.195 C 404.490 131.199, 408.025 130.963, 418.844 131.195 C 426.632 131.363, 433.003 131.162, 433.002 130.750 C 433 129.823, 404.591 129.743, 403.667 130.667 M 115.750 182.743 C 119.737 182.932, 126.263 182.932, 130.250 182.743 C 134.238 182.553, 130.975 182.397, 123 182.397 C 115.025 182.397, 111.763 182.553, 115.750 182.743 M 243.014 287.247 C 239.504 293.986, 234.465 303.505, 231.816 308.400 C 229.167 313.295, 227 317.734, 227 318.264 C 227 319.545, 249.266 359, 249.989 359 C 250.299 359, 255.804 349.663, 262.223 338.250 C 272.658 319.699, 273.758 317.288, 272.598 315.500 C 271.884 314.400, 266.681 305.175, 261.034 295 C 255.388 284.825, 250.460 276.161, 250.082 275.747 C 249.704 275.333, 246.523 280.508, 243.014 287.247" stroke="none" fill="#949493" fill-rule="evenodd"/><path d="M 247.575 8.060 C 231.482 10.754, 215.655 20.746, 207.155 33.579 L 204.192 38.053 194.846 38.368 C 180.706 38.846, 167.923 44.980, 160.122 55.031 L 156.500 59.698 144.952 59.720 C 131.722 59.744, 124.775 61.341, 115.488 66.495 C 106.829 71.301, 99.788 77.349, 94.553 84.479 L 89.982 90.705 85.241 90.252 C 67.985 88.606, 49.492 99.586, 41 116.520 C 37.537 123.425, 37.500 123.639, 37.500 136.500 C 37.500 148.970, 37.626 149.765, 40.597 156 C 46.271 167.907, 56.951 177.373, 68.752 180.956 C 73.936 182.530, 80.572 182.712, 136.341 182.810 C 184.356 182.895, 198.072 182.649, 197.687 181.710 C 197.415 181.044, 196.919 179.825, 196.585 179 C 196.218 178.092, 203.287 164.655, 214.473 145 C 224.645 127.125, 236.688 105.884, 241.234 97.797 C 245.780 89.711, 249.725 83.094, 250 83.093 C 250.275 83.093, 253.702 88.809, 257.616 95.796 C 261.530 102.783, 273.050 123.125, 283.217 141 C 293.383 158.875, 302.244 174.529, 302.906 175.787 C 303.984 177.835, 303.319 179.439, 296.555 191.099 C 292.400 198.263, 289 204.517, 289 204.998 C 289 205.490, 313.582 205.739, 345.250 205.567 C 388.064 205.335, 402.336 204.954, 405 203.972 C 425.317 196.486, 431.338 170.556, 416.558 154.196 C 413.009 150.267, 403.262 144.733, 397.866 143.582 C 395.517 143.081, 395.158 142.417, 394.534 137.426 C 394.150 134.349, 394.135 131.532, 394.501 131.166 C 394.867 130.800, 407.392 130.463, 422.333 130.418 C 448.180 130.340, 449.723 130.229, 454.086 128.135 C 460.215 125.194, 466.744 118.625, 469.627 112.500 C 473.258 104.787, 472.989 94.298, 468.953 86.222 C 464.333 76.976, 455.972 70.643, 446.708 69.373 L 442.410 68.784 440.833 59.513 C 433.793 18.130, 390.470 -4.411, 352.500 13.554 C 344.498 17.339, 335.499 24.968, 329.573 32.988 L 325.500 38.500 318.500 38.181 L 311.500 37.863 307 31.812 C 293.500 13.661, 270.067 4.294, 247.575 8.060 M 317.346 373.054 C 312.474 376.175, 310.523 381.156, 310.510 390.500 C 310.499 399.343, 312.189 403.569, 317.246 407.338 C 321.011 410.144, 328.989 410.144, 332.754 407.338 C 337.899 403.503, 339.501 399.380, 339.491 390 C 339.481 380.226, 337.833 376.088, 332.701 372.960 C 328.455 370.370, 321.469 370.413, 317.346 373.054 M 349.378 372.437 C 345.244 374.236, 343 377.628, 343 382.076 C 343 386.761, 346.085 390.126, 352.557 392.501 C 355.276 393.498, 358.394 395.150, 359.486 396.171 C 364.018 400.408, 355.534 403.879, 348.958 400.478 C 345.921 398.908, 345.701 398.932, 343.398 401.096 C 342.079 402.335, 341 403.637, 341 403.990 C 341 404.343, 342.899 405.699, 345.220 407.003 C 350.481 409.960, 359.778 410.246, 364.829 407.607 C 371.325 404.212, 372.686 394.394, 367.347 389.445 C 365.960 388.160, 362.277 386.259, 359.162 385.221 C 354.362 383.621, 353.500 382.965, 353.500 380.917 C 353.500 378.918, 354.066 378.446, 356.767 378.185 C 358.564 378.012, 361.345 378.525, 362.948 379.324 C 365.665 380.680, 366.007 380.622, 368.035 378.463 C 370.596 375.737, 370.208 374.801, 365.615 372.622 C 361.491 370.665, 353.655 370.576, 349.378 372.437 M 129.600 380.250 C 128.214 384.788, 125.755 392.775, 124.136 398 C 122.517 403.225, 121.539 407.868, 121.964 408.318 C 122.389 408.768, 124.483 408.993, 126.618 408.818 C 130.066 408.536, 130.626 408.109, 131.631 405 C 132.713 401.652, 132.968 401.500, 137.500 401.500 C 142.032 401.500, 142.287 401.652, 143.369 405 L 144.500 408.500 153.216 408.722 L 161.933 408.945 162.216 398.234 C 162.462 388.962, 162.735 387.479, 164.250 387.189 C 165.831 386.886, 166 387.920, 166 397.927 L 166 409 168.966 409 L 171.932 409 172.216 398.262 C 172.469 388.708, 172.705 387.484, 174.363 387.167 C 176.105 386.833, 176.202 387.513, 175.863 397.655 L 175.500 408.500 179.500 408.500 L 183.500 408.500 183.783 396.625 C 184.003 387.367, 183.734 384.242, 182.559 382.450 C 180.502 379.310, 177.553 378.577, 174.034 380.333 C 171.506 381.594, 170.916 381.604, 169.919 380.403 C 168.398 378.569, 165.981 378.625, 163.223 380.557 C 161.977 381.429, 161 381.649, 161 381.057 C 161 380.476, 159.425 380, 157.500 380 L 154 380 153.941 392.750 L 153.882 405.500 148.755 388.750 L 143.629 372 137.875 372 L 132.121 372 129.600 380.250 M 321.786 380.250 C 320.019 383.344, 320.093 398.202, 321.886 400.363 C 323.738 402.594, 327.700 402.428, 328.965 400.066 C 330.635 396.945, 330.264 382.821, 328.443 380.223 C 326.444 377.367, 323.424 377.380, 321.786 380.250 M 199.250 380.452 C 197.463 381.250, 196 381.475, 196 380.952 C 196 380.428, 194.200 380, 192 380 L 188 380 188 400 L 188 420 190.918 420 C 196.312 420, 197 419.245, 197 413.326 C 197 408.097, 197.095 407.899, 199.250 408.650 C 207.719 411.606, 214 405.368, 214 394 C 214 388.589, 212.256 383.284, 209.810 381.256 C 207.385 379.245, 202.743 378.892, 199.250 380.452 M 227.258 379.657 C 223.841 380.389, 219.155 385.659, 218.415 389.601 C 217.222 395.960, 218.498 401.960, 221.730 405.192 C 226.813 410.274, 236.594 410.942, 242.518 406.611 C 244.419 405.221, 244.422 405.124, 242.635 403.149 C 241.097 401.449, 240.001 401.212, 235.916 401.696 C 230.865 402.295, 228 401.093, 228 398.378 C 228 397.316, 229.947 397, 236.500 397 L 245 397 245 393.468 C 245 388.648, 242.687 383.497, 239.622 381.488 C 236.935 379.728, 231.019 378.851, 227.258 379.657 M 267.400 380.389 C 265.694 381.153, 263.945 382.615, 263.512 383.639 C 262.805 385.310, 262.658 385.245, 262.072 383 C 261.495 380.793, 260.809 380.465, 256.209 380.198 L 251 379.895 251 383.448 C 251 385.939, 251.448 387, 252.500 387 C 253.700 387, 254 388.500, 254 394.500 C 254 400.500, 253.700 402, 252.500 402 C 251.449 402, 251 403.060, 251 405.539 L 251 409.078 259.750 408.789 L 268.500 408.500 268.813 405.250 C 269.105 402.222, 268.917 402, 266.063 402 C 263.305 402, 263 401.692, 263 398.901 C 263 395.195, 265.590 389.371, 267.577 388.609 C 268.577 388.225, 269 388.816, 269 390.595 C 269 392.849, 269.357 393.092, 272.249 392.813 C 275.401 392.509, 275.523 392.324, 276.311 386.645 C 276.758 383.425, 276.950 380.617, 276.739 380.405 C 275.538 379.204, 270.066 379.195, 267.400 380.389 M 288 380.698 C 284.001 382.757, 279.987 389.682, 280.022 394.462 C 280.058 399.401, 283.462 405.667, 287.171 407.622 C 293.480 410.947, 306 408.937, 306 404.599 C 306 401.990, 303.471 401.038, 298.197 401.663 C 292.858 402.295, 290 401.150, 290 398.378 C 290 397.310, 292.022 397, 299 397 L 308 397 307.998 393.750 C 307.993 383.326, 296.925 376.102, 288 380.698 M 136.208 385.918 C 134.511 393.269, 134.628 394, 137.500 394 C 140.404 394, 140.568 392.839, 138.689 385.592 L 137.416 380.684 136.208 385.918 M 198.656 387.262 C 197.223 388.310, 196.950 389.765, 197.196 395.026 C 197.489 401.258, 197.603 401.512, 200.250 401.816 C 202.443 402.069, 203.201 401.601, 204 399.501 C 205.339 395.978, 205.239 392.026, 203.735 389.079 C 202.198 386.067, 200.917 385.609, 198.656 387.262 M 228.121 388.183 C 227.319 390.337, 227.537 390.522, 231.233 390.813 C 233.419 390.985, 235.483 390.850, 235.819 390.515 C 237.001 389.332, 234.267 386.496, 231.642 386.183 C 229.620 385.942, 228.779 386.420, 228.121 388.183 M 291.243 387.157 C 288.737 389.663, 289.858 391, 294.468 391 C 298.679 391, 298.888 390.871, 298.110 388.750 C 297.169 386.185, 293.148 385.252, 291.243 387.157" stroke="none" fill="#333333" fill-rule="evenodd"/></svg>